<svg width="35" height="35" viewBox="0 0 35 35" fill="none" xmlns="http://www.w3.org/2000/svg">
<path d="M26.875 0.625H4.375C2.29375 0.625 0.625 2.3125 0.625 4.375V30.625C0.625 32.6875 2.29375 34.375 4.375 34.375H30.625C32.6875 34.375 34.375 32.6875 34.375 30.625V8.125L26.875 0.625ZM17.5 30.625C14.3875 30.625 11.875 28.1125 11.875 25C11.875 21.8875 14.3875 19.375 17.5 19.375C20.6125 19.375 23.125 21.8875 23.125 25C23.125 28.1125 20.6125 30.625 17.5 30.625ZM23.125 11.875H4.375V4.375H23.125V11.875Z" fill="#E8E8E8"/>
</svg>
